<svg xmlns="http://www.w3.org/2000/svg" width="137" height="34" viewBox="0 0 137 34" fill="none">
                    <path d="M28.568 24.2307C27.8296 23.7692 26.9988 23.4307 26.1373 23.2461C28.8757 19.1538 30.2911 14.323 30.2296 9.39997V9.27689L30.1373 9.18459C29.0603 8.13843 27.8603 7.24612 26.568 6.50766C27.2142 5.49228 27.4911 4.26151 27.3065 3.06151C27.3065 2.90766 27.1834 2.78459 27.0603 2.75382C26.9373 2.72305 26.7834 2.75382 26.6911 2.87689C26.2296 3.43074 25.1834 4.50766 24.2911 5.3692C23.9834 5.24612 23.6449 5.12305 23.3373 4.99997C23.5834 3.95382 23.9219 2.69228 24.1373 2.07689C24.168 1.92305 24.0757 1.70766 23.8911 1.64612C23.8296 1.61535 23.7373 1.61535 23.6757 1.64612C22.4142 2.07689 21.3988 3.09228 20.968 4.38459C19.7065 4.10766 18.3834 3.98459 17.0911 3.98459C12.2296 3.98459 7.55264 5.86151 4.04495 9.21536L3.95264 9.30766V9.43074C3.79879 18.5692 8.84495 27 16.9373 31.2154L17.0603 31.2769L17.1834 31.2154C19.7065 29.8923 21.9834 28.1384 23.8911 26.0461C24.4142 25.923 24.9373 25.7384 25.4603 25.5538C26.4142 25.2154 27.3065 24.9077 28.2911 24.9692H28.3219C28.4757 24.9692 28.6296 24.8461 28.6911 24.6923C28.7834 24.5077 28.7219 24.323 28.568 24.2307Z" fill="white" stroke="#FFC426" strokewidth="2.25"></path>
                    <path d="M26.3849 6.75409C26.7234 6.26178 27.0003 5.70793 27.1542 5.15409C29.0926 6.07716 30.8773 7.27716 32.4773 8.69255C32.2926 14.0772 30.508 19.2772 27.4003 23.6464C26.8773 23.431 26.3234 23.2772 25.7696 23.1849C28.5388 19.1233 29.9542 14.3233 29.8926 9.40024C28.8465 8.38486 27.6773 7.49255 26.3849 6.75409ZM23.2773 5.30793C23.5542 5.40024 23.8003 5.49255 24.0773 5.61563C24.4773 5.24639 24.908 4.78486 25.3388 4.35409C24.7849 4.1387 24.2311 3.95409 23.6773 3.80024C23.5234 4.32332 23.3696 4.84639 23.2773 5.30793ZM21.5542 11.6156C21.8926 11.831 22.0465 12.5695 22.9696 12.3233C23.0619 12.3849 23.1542 12.4464 23.2465 12.5079C23.0619 11.5849 22.2003 11.3695 21.5542 11.6156ZM23.7388 2.01562C23.7696 2.04639 23.7696 2.04639 23.7388 2.01562C23.4619 3.09255 22.8157 5.55409 22.6311 6.47716C22.8773 6.32332 23.0926 6.07716 23.2465 5.83101C23.2465 5.83101 23.2465 5.83101 23.2773 5.83101C23.2773 5.83101 23.2773 5.83101 23.308 5.83101C23.4619 6.07716 23.4926 6.38486 23.4619 6.69255C24.6926 5.58486 25.8311 4.41563 26.9388 3.18486H26.9696C26.9696 3.18486 27.0003 3.18486 27.0003 3.21563C27.308 5.61563 25.7388 7.58486 23.8003 8.47716C24.6003 9.3387 25.2773 10.2925 25.8311 11.3079C25.7696 11.831 25.6157 12.3541 25.3696 12.8156C25.4619 13.9541 26.2003 16.6002 26.6619 17.4925C26.6619 17.9541 26.5696 18.4156 26.3849 18.8464C25.8926 19.0925 25.3388 19.2772 24.8157 19.3695C25.0311 19.431 25.2773 19.4618 25.4926 19.431C25.3696 19.6156 25.2157 19.7695 25.0619 19.8925C24.5696 20.0464 24.0773 20.0772 23.5542 19.9849C23.4619 19.3387 23.1542 18.7541 22.6619 18.3541C22.0157 17.7079 20.6619 16.8464 19.9849 16.1695C19.4926 15.6156 19.2157 14.9079 19.1542 14.1695C19.1542 14.0156 19.1234 13.8618 19.0926 13.7079C18.8773 11.5849 17.9849 9.61563 16.508 8.04639C16.9388 8.1387 17.6465 8.5387 18.1388 8.44639C18.7849 8.32332 18.7542 7.15409 19.4003 6.60024H19.4311V6.63101C19.4003 6.96947 19.4619 7.30793 19.5849 7.61563C19.6465 6.90793 19.9234 6.23101 20.3849 5.70793H20.4157V5.7387C20.4465 6.1387 20.6619 6.5387 20.9696 6.78486C20.7542 4.69255 21.9542 2.60024 23.7388 2.01562ZM23.5849 17.031C23.1542 17.0002 22.7234 17.1849 22.4465 17.4925C23.1234 17.8002 23.6157 18.3541 23.8619 19.0618C24.0465 18.8772 24.1696 18.6618 24.2311 18.4156C24.2311 18.4156 24.2311 18.4156 24.2619 18.4156C24.2926 18.4772 24.2926 18.5079 24.3234 18.5387C24.4773 18.8156 24.7542 18.9387 24.9388 18.8156C25.1234 18.6925 25.1234 18.4156 24.9696 18.1387C24.8773 17.9849 24.7234 17.8618 24.5388 17.831C24.5388 17.831 24.5388 17.831 24.5388 17.8002C24.7542 17.6772 25.0003 17.7079 25.1849 17.8618C25.2773 17.9233 25.3696 18.0156 25.4311 18.1387C25.6465 17.8925 25.9234 17.7387 26.2619 17.7387C25.8311 16.9079 25.5542 16.0156 25.3696 15.0925C24.5696 15.1541 23.6157 16.0464 23.5849 17.031ZM20.9388 11.431C21.0926 11.8925 21.708 12.7233 22.3542 12.8772C22.8465 12.9695 23.3388 12.8156 23.708 12.4772C23.4311 11.831 23.0003 11.2772 22.4773 10.8156C21.9234 10.8772 21.4003 11.0925 20.9388 11.431ZM28.3849 24.5387V24.5695L28.3542 24.6002C25.8619 24.4156 24.0465 26.5079 20.8773 25.6772C21.308 26.0772 22.108 26.2618 22.4465 26.3233C22.4773 26.3233 22.4773 26.3233 22.4773 26.3541C22.4773 26.3849 22.4773 26.3849 22.4465 26.3849C20.5388 26.7541 18.4773 26.4464 17.0926 25.2156C16.6311 26.8464 16.108 28.4464 15.4926 30.0156C16.0157 30.3233 16.5388 30.631 17.0926 30.9387C19.4619 29.6772 21.6157 28.0464 23.4311 26.1079C24.1388 25.9541 24.8465 25.7695 25.4926 25.4925L26.1388 25.2772C23.6465 28.2618 20.5696 30.7233 17.0619 32.4464C7.95418 27.9849 2.04648 18.8464 1.64648 8.69255C5.89264 4.90793 11.4003 2.84639 17.0926 2.87716C18.6003 2.87716 20.0773 3.03101 21.5542 3.30793C21.2773 3.7387 21.0311 4.20024 20.8773 4.66178C14.8773 3.43101 8.66187 5.18486 4.2311 9.43101C4.20033 11.0925 4.35418 12.7849 4.69264 14.4156C4.93879 11.3079 6.16956 9.61563 7.52341 8.23101C8.56956 7.18486 10.908 6.01562 11.6465 6.01562C12.3849 6.01562 14.7234 7.18486 15.7696 8.23101C17.3696 9.83101 18.7849 11.8925 18.6311 16.1387C18.5388 18.1079 18.2926 20.0464 17.8926 21.9849C15.4926 21.3079 13.5849 19.5233 12.6619 17.2156C11.8311 15.031 12.6003 12.2925 10.908 11.0002H10.8773V11.031C12.108 12.5079 11.2157 15.1233 11.9542 17.3079C13.1542 20.8464 16.8465 23.5541 20.9388 22.9079C20.9388 22.9079 20.9696 22.9079 20.9696 22.9387V22.9695C20.2003 23.4925 19.308 23.7695 18.3849 23.7695C21.3388 24.9387 24.2003 21.9541 28.3849 24.5387ZM13.2465 28.4772C13.5234 27.1849 13.5234 25.6772 13.3388 24.8772C12.6619 24.4464 12.0773 23.8618 11.6157 23.1849C11.1542 23.8618 10.5696 24.4156 9.92341 24.8772C9.89264 24.9695 9.89264 25.0618 9.86187 25.1849C10.8773 26.3849 12.0157 27.4925 13.2465 28.4772Z" fill="#FFC426"></path>
                    <path d="M23.7388 2.01562C23.7696 2.04639 23.7696 2.04639 23.7388 2.01562ZM23.7388 2.01562C23.4619 3.09255 22.8157 5.55409 22.6311 6.47716C22.8773 6.32332 23.0926 6.07716 23.2465 5.83101C23.2465 5.83101 23.2465 5.83101 23.2773 5.83101C23.2773 5.83101 23.2773 5.83101 23.308 5.83101C23.4619 6.07716 23.4926 6.38486 23.4619 6.69255C24.6926 5.58486 25.8311 4.41563 26.9388 3.18486H26.9696C26.9696 3.18486 27.0003 3.18486 27.0003 3.21563C27.308 5.61563 25.7388 7.58486 23.8003 8.47716C24.6003 9.3387 25.2773 10.2925 25.8311 11.3079C25.7696 11.831 25.6157 12.3541 25.3696 12.8156C25.4619 13.9541 26.2003 16.6002 26.6619 17.4925C26.6619 17.9541 26.5696 18.4156 26.3849 18.8464C25.8926 19.0925 25.3388 19.2772 24.8157 19.3695C25.0311 19.431 25.2773 19.4618 25.4926 19.431C25.3696 19.6156 25.2157 19.7695 25.0619 19.8925C24.5696 20.0464 24.0773 20.0772 23.5542 19.9849C23.4619 19.3387 23.1542 18.7541 22.6619 18.3541C22.0157 17.7079 20.6619 16.8464 19.9849 16.1695C19.4926 15.6156 19.2157 14.9079 19.1542 14.1695C19.1542 14.0156 19.1234 13.8618 19.0926 13.7079C18.8773 11.5849 17.9849 9.61563 16.508 8.04639C16.9388 8.1387 17.6465 8.5387 18.1388 8.44639C18.7849 8.32332 18.7542 7.15409 19.4003 6.60024H19.4311V6.63101C19.4003 6.96947 19.4619 7.30793 19.5849 7.61563C19.6465 6.90793 19.9234 6.23101 20.3849 5.70793H20.4157V5.7387C20.4465 6.1387 20.6619 6.5387 20.9696 6.78486C20.7542 4.69255 21.9542 2.60024 23.7388 2.01562ZM26.3849 6.75409C26.7234 6.26178 27.0003 5.70793 27.1542 5.15409C29.0926 6.07716 30.8773 7.27716 32.4773 8.69255C32.2926 14.0772 30.508 19.2772 27.4003 23.6464C26.8773 23.431 26.3234 23.2772 25.7696 23.1849C28.5388 19.1233 29.9542 14.3233 29.8926 9.40024C28.8465 8.38486 27.6773 7.49255 26.3849 6.75409ZM23.2773 5.30793C23.5542 5.40024 23.8003 5.49255 24.0773 5.61563C24.4773 5.24639 24.908 4.78486 25.3388 4.35409C24.7849 4.1387 24.2311 3.95409 23.6773 3.80024C23.5234 4.32332 23.3696 4.84639 23.2773 5.30793ZM21.5542 11.6156C21.8926 11.831 22.0465 12.5695 22.9696 12.3233C23.0619 12.3849 23.1542 12.4464 23.2465 12.5079C23.0619 11.5849 22.2003 11.3695 21.5542 11.6156ZM23.5849 17.031C23.1542 17.0002 22.7234 17.1849 22.4465 17.4925C23.1234 17.8002 23.6157 18.3541 23.8619 19.0618C24.0465 18.8772 24.1696 18.6618 24.2311 18.4156C24.2311 18.4156 24.2311 18.4156 24.2619 18.4156C24.2926 18.4772 24.2926 18.5079 24.3234 18.5387C24.4773 18.8156 24.7542 18.9387 24.9388 18.8156C25.1234 18.6925 25.1234 18.4156 24.9696 18.1387C24.8773 17.9849 24.7234 17.8618 24.5388 17.831C24.5388 17.831 24.5388 17.831 24.5388 17.8002C24.7542 17.6772 25.0003 17.7079 25.1849 17.8618C25.2773 17.9233 25.3696 18.0156 25.4311 18.1387C25.6465 17.8925 25.9234 17.7387 26.2619 17.7387C25.8311 16.9079 25.5542 16.0156 25.3696 15.0925C24.5696 15.1541 23.6157 16.0464 23.5849 17.031ZM20.9388 11.431C21.0926 11.8925 21.708 12.7233 22.3542 12.8772C22.8465 12.9695 23.3388 12.8156 23.708 12.4772C23.4311 11.831 23.0003 11.2772 22.4773 10.8156C21.9234 10.8772 21.4003 11.0925 20.9388 11.431ZM28.3849 24.5387V24.5695L28.3542 24.6002C25.8619 24.4156 24.0465 26.5079 20.8773 25.6772C21.308 26.0772 22.108 26.2618 22.4465 26.3233C22.4773 26.3233 22.4773 26.3233 22.4773 26.3541C22.4773 26.3849 22.4773 26.3849 22.4465 26.3849C20.5388 26.7541 18.4773 26.4464 17.0926 25.2156C16.6311 26.8464 16.108 28.4464 15.4926 30.0156C16.0157 30.3233 16.5388 30.631 17.0926 30.9387C19.4619 29.6772 21.6157 28.0464 23.4311 26.1079C24.1388 25.9541 24.8465 25.7695 25.4926 25.4925L26.1388 25.2772C23.6465 28.2618 20.5696 30.7233 17.0619 32.4464C7.95418 27.9849 2.04648 18.8464 1.64648 8.69255C5.89264 4.90793 11.4003 2.84639 17.0926 2.87716C18.6003 2.87716 20.0773 3.03101 21.5542 3.30793C21.2773 3.7387 21.0311 4.20024 20.8773 4.66178C14.8773 3.43101 8.66187 5.18486 4.2311 9.43101C4.20033 11.0925 4.35418 12.7849 4.69264 14.4156C4.93879 11.3079 6.16956 9.61563 7.52341 8.23101C8.56956 7.18486 10.908 6.01563 11.6465 6.01563C12.3849 6.01563 14.7234 7.18486 15.7696 8.23101C17.3696 9.83101 18.7849 11.8925 18.6311 16.1387C18.5388 18.1079 18.2926 20.0464 17.8926 21.9849C15.4926 21.3079 13.5849 19.5233 12.6619 17.2156C11.8311 15.031 12.6003 12.2925 10.908 11.0002H10.8773V11.031C12.108 12.5079 11.2157 15.1233 11.9542 17.3079C13.1542 20.8464 16.8465 23.5541 20.9388 22.9079C20.9388 22.9079 20.9696 22.9079 20.9696 22.9387V22.9695C20.2003 23.4925 19.308 23.7695 18.3849 23.7695C21.3388 24.9387 24.2003 21.9541 28.3849 24.5387ZM13.2465 28.4772C13.5234 27.1849 13.5234 25.6772 13.3388 24.8772C12.6619 24.4464 12.0773 23.8618 11.6157 23.1849C11.1542 23.8618 10.5696 24.4156 9.92341 24.8772C9.89264 24.9695 9.89264 25.0618 9.86187 25.1849C10.8773 26.3849 12.0157 27.4925 13.2465 28.4772Z" stroke="#FFC426" strokewidth="2.25"></path>
                    <path d="M28.5688 24.3237C27.8303 23.8622 26.9995 23.5237 26.138 23.3391C28.8765 19.2468 30.2918 14.416 30.2303 9.52369V9.40062L30.138 9.30831C29.0611 8.26215 27.8611 7.36985 26.5688 6.63138C27.2457 5.616 27.4918 4.38523 27.3072 3.18523C27.2765 3.00062 27.0918 2.84677 26.9072 2.87754C26.8149 2.87754 26.7534 2.93908 26.6918 3.00062C26.2303 3.55446 25.1842 4.63139 24.2918 5.49292C23.9842 5.36985 23.6457 5.24677 23.338 5.12369C23.5842 4.07754 23.9226 2.816 24.138 2.20062C24.1688 2.07754 24.138 1.92369 24.0457 1.83139C23.9534 1.73908 23.7995 1.70831 23.6765 1.73908C22.4149 2.16985 21.3995 3.18523 20.9688 4.44677C14.8765 3.18523 8.538 4.96985 4.04569 9.27754L3.95339 9.36985V9.49292C3.83031 18.6314 8.84569 27.0622 16.9688 31.3083L17.0918 31.3698L17.2149 31.3083C19.738 29.9852 22.0149 28.2314 23.9226 26.1391C24.4457 25.9852 24.9688 25.8314 25.4918 25.6468C26.4457 25.3083 27.3072 25.0006 28.3226 25.0622H28.3534C28.5072 25.0622 28.6611 24.9391 28.7226 24.7852C28.7842 24.6006 28.7226 24.416 28.5688 24.3237Z" fill="#FFC426"></path>
                    <path d="M26.4142 6.84588C26.7527 6.35358 27.0296 5.79973 27.1835 5.24588C29.1219 6.16896 30.9066 7.36896 32.5066 8.78434C32.3219 14.169 30.5373 19.369 27.4296 23.7382C26.9066 23.5228 26.3527 23.369 25.7989 23.2767C28.5681 19.2151 29.9835 14.4151 29.9219 9.49204C28.8758 8.47665 27.6758 7.58434 26.4142 6.84588ZM23.2758 5.39973C23.5527 5.49204 23.8296 5.58435 24.0758 5.70742C24.4758 5.33819 24.9066 4.87665 25.3373 4.44588C24.7835 4.2305 24.2296 4.04588 23.6758 3.89204C23.5219 4.38435 23.3989 4.90742 23.2758 5.39973ZM21.5527 11.6767C21.8912 11.892 22.045 12.6305 22.9681 12.3843C23.0604 12.4151 23.1527 12.4767 23.245 12.569C23.0604 11.6767 22.1989 11.4613 21.5527 11.6767ZM23.7373 2.10742C23.7681 2.10742 23.7681 2.10742 23.7373 2.10742C23.4604 3.15358 22.8142 5.64588 22.6296 6.56896C22.8758 6.41511 23.0912 6.16896 23.245 5.92281C23.245 5.92281 23.245 5.92281 23.2758 5.89204C23.2758 5.89204 23.3066 5.89204 23.3066 5.92281C23.4604 6.16896 23.5219 6.47665 23.4604 6.78434C24.6604 5.67665 25.8296 4.50742 26.9066 3.27665H26.9373C26.9373 3.27665 26.9681 3.27665 26.9681 3.30742C27.2758 5.70742 25.7066 7.70742 23.7989 8.59973C24.5989 9.46127 25.2758 10.4151 25.8296 11.4305C25.7681 11.9536 25.6142 12.4767 25.3681 12.9382C25.4604 14.0767 26.1989 16.7228 26.6604 17.6459C26.6604 18.1074 26.5681 18.569 26.3835 18.9997C25.8912 19.2459 25.3373 19.3997 24.8142 19.492C25.0296 19.5536 25.2758 19.5843 25.4912 19.5843C25.4912 19.5843 25.4912 19.5843 25.5219 19.5843C25.5219 19.5843 25.5219 19.5843 25.5219 19.6151C25.3989 19.7997 25.245 19.9536 25.0912 20.0767C24.5989 20.2305 24.1066 20.2613 23.6142 20.169C23.5219 19.5228 23.2142 18.9382 22.7219 18.5382C22.0758 17.892 20.6912 17.0305 20.045 16.3536C19.5527 15.7997 19.2758 15.092 19.2142 14.3536C19.2142 14.1997 19.1835 14.0459 19.1527 13.892C18.9373 11.769 18.045 9.79973 16.5681 8.2305C16.9989 8.32281 17.7066 8.72281 18.1989 8.6305C18.845 8.50742 18.8142 7.33819 19.4604 6.78434H19.4912V6.81511C19.4912 7.15358 19.5219 7.46127 19.645 7.76896C19.7066 7.06127 19.9835 6.38435 20.445 5.86127H20.4758C20.4758 5.86127 20.4758 5.86127 20.4758 5.89204C20.5065 6.29204 20.6912 6.69204 20.9989 6.96896C20.7527 4.75358 21.9835 2.69204 23.7373 2.10742ZM23.6142 17.092C23.1835 17.0613 22.7527 17.2459 22.4758 17.5536C23.1527 17.8613 23.645 18.4151 23.8912 19.1228C24.0758 18.9382 24.1989 18.7228 24.2604 18.4767C24.2604 18.4767 24.2604 18.4767 24.2912 18.4767C24.3219 18.5382 24.3219 18.569 24.3527 18.6305C24.5066 18.9074 24.7835 19.0305 24.9681 18.9074C25.1527 18.7843 25.1527 18.5074 24.9989 18.2305C24.9066 18.0767 24.7527 17.9536 24.5681 17.9228M24.5373 17.9228C24.7527 17.7997 24.9989 17.8305 25.1835 17.9843C25.2758 18.0459 25.3681 18.1382 25.4296 18.2613C25.645 18.0151 25.9219 17.892 26.2604 17.8613C25.8604 17.0305 25.5527 16.1382 25.3989 15.2459C24.5989 15.2459 23.645 16.1382 23.645 17.092L24.5373 17.9228ZM20.9373 11.492C21.0912 11.9536 21.7066 12.7843 22.3527 12.9382C22.845 13.0305 23.3373 12.9074 23.7066 12.5382C23.4296 11.892 22.9989 11.3382 22.4758 10.8767C21.9219 10.969 21.3989 11.1843 20.9373 11.492ZM28.3835 24.6305V24.6613L28.3527 24.692C25.8604 24.5074 24.045 26.5997 20.8758 25.7997C21.3066 26.1997 22.1066 26.3843 22.445 26.4459L22.4758 26.4767C22.4758 26.4767 22.4758 26.5074 22.445 26.5074C20.5373 26.8459 18.4758 26.5382 17.1219 25.3382C16.6604 26.969 16.1373 28.569 15.5219 30.1382C16.045 30.4767 16.5681 30.7843 17.1219 31.0613C19.4604 29.8305 21.6142 28.169 23.4296 26.2305C24.1373 26.0767 24.845 25.892 25.5219 25.6151C25.7373 25.5536 25.9527 25.4613 26.1681 25.3997C23.6758 28.3843 20.5989 30.8459 17.0912 32.569C7.98347 28.0459 2.04501 18.9382 1.67578 8.75358C5.92194 4.99973 11.3989 2.90742 17.0912 2.93819C18.5989 2.93819 20.0758 3.09204 21.5527 3.36896C21.2758 3.79973 21.0296 4.26127 20.8758 4.72281C14.8758 3.49204 8.6604 5.27665 4.22963 9.49204C4.19886 11.1843 4.3527 12.8459 4.69117 14.5074C4.93732 11.3997 6.16809 9.70742 7.52194 8.32281C8.56809 7.27665 10.9066 6.10742 11.645 6.10742C12.3835 6.10742 14.7219 7.27665 15.7681 8.32281C17.3681 9.92281 18.7527 11.9843 18.6296 16.2305C18.5373 18.1997 18.2912 20.1382 17.8912 22.0767C15.4912 21.3997 13.5527 19.6151 12.6604 17.3074C11.8296 15.1228 12.5989 12.3843 10.9066 11.1228H10.8758V11.1536C12.1066 12.6305 11.2142 15.2151 11.9527 17.4305C13.1527 20.969 16.8142 23.6767 20.9373 23.0305C20.9681 23.0305 20.9681 23.0305 20.9681 23.0613V23.092C20.1989 23.6151 19.3066 23.892 18.3835 23.892C21.3373 24.9997 24.1989 22.0459 28.3835 24.6305ZM13.2758 28.569C13.5527 27.2767 13.5527 25.769 13.3681 24.969C12.6912 24.5382 12.1066 23.9536 11.645 23.2767C11.1835 23.9536 10.5989 24.5074 9.92194 24.969C9.89117 25.0613 9.89117 25.1536 9.8604 25.2767C10.8758 26.4767 12.0142 27.5843 13.2758 28.569Z" fill="black"></path>
                    <path d="M42.5375 18.7234C43.2759 18.2619 43.7375 17.4311 43.7375 16.5388C43.7375 14.9388 42.4144 13.6465 39.6759 13.6465H35.0605V24.6003H40.3529C43.2452 24.6003 44.7221 23.1849 44.7221 21.4619C44.7221 20.2926 44.0144 19.2157 42.5375 18.7234ZM38.0144 15.9542H39.5221C40.3221 15.9542 40.7221 16.2926 40.7221 16.8773C40.7221 17.4619 40.3221 17.8003 39.5221 17.8003H38.0144V15.9542ZM40.2298 22.3234H38.0452V20.0157H40.2298C41.2144 20.0157 41.7375 20.4773 41.7375 21.1542C41.7375 21.8311 41.2144 22.3234 40.2298 22.3234Z" fill="white"></path>
                    <path d="M83.2161 21.4619C83.2161 23.4004 81.493 24.785 78.57 24.785C77.0623 24.785 75.5853 24.385 74.293 23.6158C74.1392 23.5235 74.0469 23.3696 74.0469 23.2158V20.6004C75.6469 21.7081 77.5853 22.2927 78.57 22.2927C79.4007 22.2927 80.0469 22.1081 80.0469 21.4619C80.0469 20.8158 79.5853 20.6619 78.293 20.2927C76.2315 19.6773 74.17 19.0004 74.17 16.6619C74.17 14.8773 75.8007 13.4619 78.6007 13.4619C79.8315 13.4927 81.0623 13.7388 82.2007 14.2311V16.8158C81.0623 16.3235 79.8623 16.0465 78.6315 16.0158C77.7392 16.0158 77.37 16.2311 77.37 16.6927C77.37 17.1542 77.8623 17.3388 78.8776 17.6465C80.8776 18.3235 83.2161 19.0927 83.2161 21.4619Z" fill="white"></path>
                    <path d="M69.5541 13.6465H66.1387L61.8926 24.6003H64.8464L66.0157 21.5542L66.2926 22.2926C66.4157 22.5388 66.631 22.6926 66.908 22.7234H70.1387L70.6926 24.1696C70.8157 24.4157 71.031 24.5696 71.308 24.6003H73.8003L69.5541 13.6465ZM66.4157 20.4157L67.831 16.7542L69.2464 20.4157H66.4157Z" fill="white"></path>
                    <path d="M93.2156 21.4619C93.2156 23.4004 91.4926 24.785 88.5695 24.785C87.0618 24.785 85.5849 24.385 84.2618 23.6158C84.1079 23.5235 84.0156 23.3696 84.0156 23.2158V20.6004C85.6156 21.7081 87.5541 22.2927 88.5079 22.2927C89.3387 22.2927 89.9849 22.1081 89.9849 21.4619C89.9849 20.8158 89.5233 20.6619 88.231 20.2927C86.1695 19.6773 84.1079 19.0004 84.1079 16.6619C84.1079 14.8773 85.7387 13.4619 88.5387 13.4619C89.7695 13.4927 91.0002 13.7388 92.1387 14.2311V16.8158C91.0002 16.3235 89.8002 16.0465 88.5695 16.0158C87.6772 16.0158 87.3079 16.2311 87.3079 16.6927C87.3079 17.1542 87.8002 17.3388 88.8156 17.6465C90.8772 18.3235 93.2156 19.0927 93.2156 21.4619Z" fill="white"></path>
                    <path d="M45.6152 13.6465H48.5691V24.1388C48.5691 24.3849 48.3537 24.6003 48.1075 24.6003H45.6152V13.6465Z" fill="white"></path>
                    <path d="M54.8773 18.5081H59.4619V24.1081C58.1388 24.1081 56.6311 24.785 54.785 24.785C50.8465 24.785 49.5234 22.5081 49.5234 19.1235C49.5234 15.7388 51.1234 13.4619 55.0311 13.4619C56.3234 13.4619 57.6157 13.6773 58.8465 14.1081V16.7235C57.7388 16.2619 56.5388 16.0465 55.3388 16.0158C53.3696 16.0158 52.4773 17.1235 52.4773 19.1235C52.4773 21.1235 53.0004 22.2927 55.3388 22.2927C55.7388 22.2927 56.1081 22.2311 56.4773 22.1081V20.785H55.3388C55.0927 20.785 54.8773 20.5696 54.8773 20.3235V18.5081Z" fill="white"></path>
                    <path d="M107.184 13.6465L102.938 24.6003H105.891L107.061 21.5542L107.338 22.2926C107.461 22.5388 107.676 22.6926 107.953 22.7234H111.184L111.768 24.1696C111.891 24.4157 112.107 24.5696 112.384 24.6003H114.876L110.63 13.6465H107.184ZM107.491 20.4157L108.907 16.7542L110.322 20.4157H107.491Z" fill="white"></path>
                    <path d="M122.292 13.6465V19.1849L118.692 13.6465H115.738V24.6003H118.231C118.477 24.6003 118.692 24.3849 118.692 24.1388V18.8157L122.569 24.6003H124.784C125.031 24.6003 125.246 24.3849 125.246 24.1388V13.6465H122.292Z" fill="white"></path>
                    <path d="M104.63 16.0465V13.6465H95.9531V24.6003H98.4454C98.6916 24.6003 98.907 24.3849 98.907 24.1388V20.6619H102.907C103.245 20.6926 103.553 20.4465 103.553 20.108C103.553 20.0773 103.553 20.0465 103.553 20.0157V18.3234H98.907V16.0773H104.63V16.0465Z" fill="white"></path>
                    <path d="M135.216 21.4619C135.216 23.4004 133.493 24.785 130.569 24.785C129.062 24.785 127.585 24.385 126.262 23.6158C126.108 23.5235 126.016 23.3696 126.016 23.2158V20.6004C127.616 21.7081 129.554 22.2927 130.539 22.2927C131.369 22.2927 132.016 22.1081 132.016 21.4619C132.016 20.8158 131.554 20.6619 130.262 20.2927C128.2 19.6773 126.139 19.0004 126.139 16.6619C126.139 14.8773 127.769 13.4619 130.569 13.4619C131.8 13.4927 133.031 13.7388 134.169 14.2311V16.8158C133.031 16.3235 131.831 16.0465 130.6 16.0158C129.708 16.0158 129.339 16.2311 129.339 16.6927C129.339 17.1542 129.831 17.3388 130.846 17.6465C132.877 18.3235 135.216 19.0927 135.216 21.4619Z" fill="white"></path>
                    <path d="M135.339 13.4619C134.908 13.4619 134.539 13.8311 134.539 14.2619C134.539 14.6927 134.908 15.0619 135.339 15.0619C135.77 15.0619 136.139 14.6927 136.139 14.2619C136.139 13.8311 135.77 13.4619 135.339 13.4619ZM135.339 14.9081C134.97 14.9081 134.693 14.6004 134.693 14.2619C134.693 13.8927 135.001 13.585 135.339 13.585C135.708 13.585 135.985 13.8927 135.985 14.2311C136.016 14.6311 135.708 14.9081 135.339 14.9081Z" fill="white"></path>
                    <path d="M135.647 14.3234C135.677 14.2618 135.677 14.2003 135.677 14.1695C135.677 14.0772 135.647 13.9849 135.585 13.9234C135.524 13.8618 135.4 13.8311 135.308 13.8311H135.031V14.6926H135.185V14.4772H135.339L135.493 14.6926H135.677L135.493 14.4464C135.585 14.4157 135.616 14.3849 135.647 14.3234ZM135.493 14.2926C135.462 14.3234 135.4 14.3541 135.339 14.3541H135.216V13.9541H135.339C135.431 13.9234 135.524 14.0157 135.554 14.108C135.554 14.1387 135.554 14.1387 135.554 14.1695C135.554 14.2003 135.524 14.2618 135.493 14.2926Z" fill="white"></path>
                </svg>